<svg width="234" height="234" viewBox="0 0 234 234" fill="none" xmlns="http://www.w3.org/2000/svg">
<g clip-path="url(#clip0_1040_2)">
<path d="M199.587 43.419C185.294 36.8608 169.967 32.029 153.942 29.2616C153.65 29.2082 153.359 29.3417 153.209 29.6086C151.237 33.1145 149.053 37.6883 147.524 41.2833C130.288 38.7028 113.14 38.7028 96.2574 41.2833C94.7281 37.6084 92.4654 33.1145 90.4853 29.6086C90.335 29.3506 90.0435 29.2172 89.7517 29.2616C73.7351 32.0202 58.4081 36.852 44.1063 43.419C43.9825 43.4723 43.8764 43.5615 43.806 43.6771C14.7339 87.1101 6.76979 129.476 10.6767 171.316C10.6944 171.521 10.8093 171.717 10.9683 171.841C30.1493 185.927 48.7294 194.478 66.9644 200.147C67.2562 200.236 67.5654 200.129 67.7512 199.889C72.0647 193.998 75.9098 187.787 79.2065 181.255C79.4011 180.873 79.2154 180.419 78.8177 180.268C72.7188 177.954 66.9113 175.133 61.325 171.931C60.8831 171.672 60.8477 171.04 61.2542 170.737C62.4298 169.857 63.6057 168.94 64.7282 168.015C64.9313 167.845 65.2143 167.81 65.4531 167.916C102.153 184.673 141.885 184.673 178.152 167.916C178.391 167.801 178.674 167.837 178.885 168.005C180.008 168.931 181.184 169.857 182.369 170.737C182.775 171.04 182.748 171.672 182.306 171.931C176.721 175.196 170.913 177.954 164.805 180.259C164.407 180.41 164.231 180.873 164.425 181.255C167.793 187.778 171.638 193.989 175.871 199.88C176.049 200.129 176.367 200.236 176.658 200.147C194.981 194.478 213.562 185.927 232.742 171.841C232.911 171.717 233.017 171.53 233.035 171.325C237.71 122.953 225.203 80.9348 199.879 43.6859C199.816 43.5615 199.711 43.4723 199.587 43.419ZM84.6871 145.84C73.6378 145.84 64.5337 135.696 64.5337 123.238C64.5337 110.78 73.4613 100.636 84.6871 100.636C96.0009 100.636 105.017 110.869 104.84 123.238C104.84 135.696 95.9125 145.84 84.6871 145.84ZM159.201 145.84C148.152 145.84 139.048 135.696 139.048 123.238C139.048 110.78 147.975 100.636 159.201 100.636C170.515 100.636 179.531 110.869 179.354 123.238C179.354 135.696 170.515 145.84 159.201 145.84Z" fill="#0063FF"/>
</g>
<defs>
<clipPath id="clip0_1040_2">
<rect width="234" height="234" fill="white"/>
</clipPath>
</defs>
</svg>
